<svg data-v-0dd9719b="" version="1.0" xmlns="http://www.w3.org/2000/svg" xmlns:xlink="http://www.w3.org/1999/xlink" width="100%" height="100%" viewBox="0 0 340.000000 250.000000" preserveAspectRatio="xMidYMid meet" color-interpolation-filters="sRGB" style="margin: auto;"> <rect data-v-0dd9719b="" x="0" y="0" width="100%" height="100%" fill="#ffffff" fill-opacity="1" class="background"></rect> <rect data-v-0dd9719b="" x="0" y="0" width="100%" height="100%" fill="url(#watermark)" fill-opacity="1" class="watermarklayer"></rect> <g data-v-0dd9719b="" fill="#43a756" class="icon-text-wrapper icon-svg-group iconsvg" transform="translate(57.36000061035156,97.35762023925781)"><g class="iconsvg-imagesvg" transform="translate(0,0)"><g><rect fill="#43a756" fill-opacity="0" stroke-width="2" x="0" y="0" width="59.99999999999999" height="55.28476259801526" class="image-rect"></rect> <svg x="0" y="0" width="59.99999999999999" height="55.28476259801526" filtersec="colorsb4715622744" class="image-svg-svg primary" style="overflow: visible;"><svg xmlns="http://www.w3.org/2000/svg" viewBox="-9.670483001617686e-14 -0.0028448104858398438 108.5300064086914 100.0006103515625"><g fill-rule="evenodd"><path d="M78.25 99.64c4.85 1.53 7.8-2.18 8.51-4.84 2.69-10.11-15.4-28-15.4-45.59s18-34 15-43.66c-.76-2.45-3.51-6.88-8.1-5.17a54.19 54.19 0 0 0 0 99.26z" fill="#387093" opacity=".8"></path><path d="M30.28 99.64c-4.85 1.53-7.8-2.18-8.51-4.84-2.69-10.11 15.4-28 15.4-45.59s-18-34-15-43.66c.77-2.45 3.52-6.88 8.11-5.17a54.2 54.2 0 0 1 0 99.26z" fill="#43a756" opacity=".8"></path><path d="M13.61 37.71A13.61 13.61 0 1 1 0 51.32a13.61 13.61 0 0 1 13.61-13.61z" fill="#387093"></path><path d="M94.92 37.71a13.61 13.61 0 1 1-13.61 13.61 13.62 13.62 0 0 1 13.61-13.61z" fill="#43a756"></path></g></svg></svg> <!----></g></g> <g transform="translate(67,7.45237922668457)"><g data-gra="path-name" fill-rule="" class="tp-name iconsvg-namesvg"><g transform="scale(1)"><g><path d="M27.6-9.18L27.6-9.18Q27-8.7 26.04-8.4 25.08-8.1 23.82-8.1L23.82-8.1Q22.26-8.1 21.21-8.49 20.16-8.88 19.74-9.9L19.74-9.9Q17.28-16.02 15.6-20.34 13.92-24.66 12.9-27.72L12.9-27.72 12.6-27.72Q12.42-23.7 12.27-20.34 12.12-16.98 12-13.77 11.88-10.56 11.73-7.26 11.58-3.96 11.34-0.12L11.34-0.12Q10.74 0.06 9.84 0.24 8.94 0.42 7.92 0.42L7.92 0.42Q3.9 0.42 3.9-2.58L3.9-2.58Q3.9-3.54 3.99-5.55 4.08-7.56 4.23-10.23 4.38-12.9 4.59-16.08 4.8-19.26 5.01-22.5 5.22-25.74 5.46-28.89 5.7-32.04 5.88-34.74L5.88-34.74Q6.36-35.34 7.65-35.97 8.94-36.6 10.98-36.6L10.98-36.6Q13.26-36.6 14.67-35.85 16.08-35.1 16.8-33.36L16.8-33.36Q17.58-31.5 18.45-29.28 19.32-27.06 20.22-24.72 21.12-22.38 21.99-20.13 22.86-17.88 23.64-15.9L23.64-15.9 23.88-15.9Q25.92-21.54 27.93-26.82 29.94-32.1 31.44-35.76L31.44-35.76Q32.16-36.12 33.3-36.36 34.44-36.6 35.64-36.6L35.64-36.6Q37.86-36.6 39.18-35.94 40.5-35.28 40.8-33.96L40.8-33.96Q41.04-32.82 41.34-30.33 41.64-27.84 41.94-24.66 42.24-21.48 42.54-17.88 42.84-14.28 43.08-10.95 43.32-7.62 43.5-4.86 43.68-2.1 43.74-0.54L43.74-0.54Q42.96-0.06 42.09 0.18 41.22 0.42 39.96 0.42L39.96 0.42Q38.4 0.42 37.23-0.21 36.06-0.84 35.94-2.58L35.94-2.58Q35.7-6.36 35.52-9.99 35.34-13.62 35.22-16.86 35.1-20.1 34.98-22.83 34.86-25.56 34.8-27.54L34.8-27.54 34.5-27.54Q33.54-24.72 31.86-20.37 30.18-16.02 27.6-9.18ZM78.9-14.22L78.9-14.22Q78.9-10.74 77.85-7.95 76.8-5.16 74.88-3.18 72.96-1.2 70.26-0.15 67.56 0.9 64.2 0.9L64.2 0.9Q60.84 0.9 58.14-0.15 55.44-1.2 53.52-3.15 51.6-5.1 50.55-7.89 49.5-10.68 49.5-14.22L49.5-14.22Q49.5-17.7 50.55-20.49 51.6-23.28 53.55-25.23 55.5-27.18 58.2-28.23 60.9-29.28 64.2-29.28L64.2-29.28Q67.5-29.28 70.2-28.23 72.9-27.18 74.85-25.2 76.8-23.22 77.85-20.43 78.9-17.64 78.9-14.22ZM64.2-23.28L64.2-23.28Q60.96-23.28 59.1-20.91 57.24-18.54 57.24-14.22L57.24-14.22Q57.24-9.84 59.07-7.5 60.9-5.16 64.2-5.16L64.2-5.16Q67.5-5.16 69.33-7.53 71.16-9.9 71.16-14.22L71.16-14.22Q71.16-18.54 69.3-20.91 67.44-23.28 64.2-23.28ZM99.78-23.22L99.78-23.22Q97.98-23.22 96.45-22.62 94.92-22.02 93.81-20.88 92.7-19.74 92.04-18.06 91.38-16.38 91.38-14.16L91.38-14.16Q91.38-9.72 93.72-7.47 96.06-5.22 99.78-5.22L99.78-5.22Q101.88-5.22 103.41-5.79 104.94-6.36 106.14-7.02L106.14-7.02Q106.98-6.42 107.49-5.64 108-4.86 108-3.84L108-3.84Q108-1.8 105.6-0.48 103.2 0.84 99.12 0.84L99.12 0.84Q95.7 0.84 92.85-0.09 90-1.02 87.96-2.91 85.92-4.8 84.81-7.62 83.7-10.44 83.7-14.16L83.7-14.16Q83.7-17.94 84.9-20.79 86.1-23.64 88.17-25.53 90.24-27.42 93-28.35 95.76-29.28 98.88-29.28L98.88-29.28Q102.9-29.28 105.3-27.87 107.7-26.46 107.7-24.42L107.7-24.42Q107.7-23.46 107.19-22.68 106.68-21.9 106.02-21.42L106.02-21.42Q104.82-22.08 103.35-22.65 101.88-23.22 99.78-23.22ZM121.86-0.06L121.86-0.06Q121.32 0.06 120.42 0.24 119.52 0.42 118.38 0.42L118.38 0.42Q116.28 0.42 115.26-0.36 114.24-1.14 114.24-3.12L114.24-3.12 114.24-39Q114.72-39.18 115.65-39.33 116.58-39.48 117.72-39.48L117.72-39.48Q119.82-39.48 120.84-38.7 121.86-37.92 121.86-35.94L121.86-35.94 121.86-17.34 133.5-28.92Q135.78-28.92 137.16-27.9 138.54-26.88 138.54-25.32L138.54-25.32Q138.54-23.94 137.67-22.92 136.8-21.9 134.94-20.34L134.94-20.34 128.46-14.7 139.92-3.96Q139.68-1.86 138.66-0.69 137.64 0.48 135.72 0.48L135.72 0.48Q134.34 0.48 133.29-0.18 132.24-0.84 130.74-2.52L130.74-2.52 121.86-12.36 121.86-0.06ZM152.58-8.82L152.58-8.82Q152.58-6.9 153.75-6.06 154.92-5.22 157.02-5.22L157.02-5.22Q158.04-5.22 159.09-5.46 160.14-5.7 160.98-6.06L160.98-6.06Q161.46-5.58 161.79-4.89 162.12-4.2 162.12-3.3L162.12-3.3Q162.12-1.5 160.5-0.33 158.88 0.84 155.28 0.84L155.28 0.84Q150.54 0.84 147.81-1.29 145.08-3.42 145.08-8.34L145.08-8.34 145.08-35.88Q145.56-36 146.49-36.18 147.42-36.36 148.5-36.36L148.5-36.36Q150.6-36.36 151.59-35.58 152.58-34.8 152.58-32.82L152.58-32.82 152.58-27.84 161.4-27.84Q161.7-27.36 161.94-26.58 162.18-25.8 162.18-24.9L162.18-24.9Q162.18-23.34 161.46-22.62 160.74-21.9 159.54-21.9L159.54-21.9 152.58-21.9 152.58-8.82Z" transform="translate(-3.9000000953674316, 39.47999954223633)"></path></g> <!----> <!----> <!----> <!----> <!----> <!----> <!----></g></g> <!----></g></g><defs v-gra="od"></defs></svg>